<?xml version="1.0" standalone="no"?>
<!DOCTYPE svg PUBLIC "-//W3C//DTD SVG 20010904//EN"
 "http://www.w3.org/TR/2001/REC-SVG-20010904/DTD/svg10.dtd">
<svg version="1.0" xmlns="http://www.w3.org/2000/svg"
 width="1024.000000pt" height="1024.000000pt" viewBox="0 0 1024.000000 1024.000000"
 preserveAspectRatio="xMidYMid meet">

<g transform="translate(0.000000,1024.000000) scale(0.100000,-0.100000)"
fill="#000000" stroke="none">
<path d="M2680 10230 c-501 -14 -816 -55 -1122 -143 -465 -135 -914 -483
-1185 -920 -216 -349 -309 -703 -354 -1347 -16 -221 -24 -4481 -10 -5024 12
-441 21 -582 52 -801 41 -288 103 -510 198 -710 214 -448 561 -798 1006 -1015
216 -105 428 -166 730 -209 383 -55 687 -60 3125 -60 2451 0 2740 5 3125 60
289 41 513 104 710 198 496 238 885 652 1084 1154 72 181 137 492 166 799 29
311 35 750 34 2838 0 2501 -5 2812 -60 3195 -41 289 -103 510 -198 710 -214
448 -561 799 -1006 1015 -299 146 -594 210 -1150 252 -177 13 -4720 20 -5145
8z m1790 -2335 l0 -125 -175 0 -175 0 0 -485 0 -485 -150 0 -150 0 0 485 0
485 -170 0 -170 0 0 125 0 125 495 0 495 0 0 -125z m420 -105 l0 -230 240 0
240 0 0 230 0 230 150 0 150 0 0 -610 0 -610 -150 0 -150 0 0 255 0 255 -240
0 -240 0 0 -255 0 -255 -150 0 -150 0 0 610 0 610 150 0 150 0 0 -230z m1860
105 l0 -125 -270 0 -270 0 0 -110 0 -110 255 0 255 0 0 -120 0 -120 -255 0
-255 0 0 -130 0 -130 285 0 285 0 0 -125 0 -125 -430 0 -430 0 0 610 0 610
415 0 415 0 0 -125z m-2 -1831 c263 -39 549 -163 709 -308 l46 -42 -193 -205
c-106 -112 -208 -219 -226 -238 l-33 -35 -68 65 c-76 72 -171 126 -283 161
-97 30 -262 32 -358 4 -100 -30 -174 -91 -208 -172 -19 -46 -20 -151 -1 -196
38 -91 128 -141 437 -247 274 -93 356 -124 432 -162 156 -79 292 -197 374
-324 86 -133 109 -237 101 -449 -6 -165 -27 -259 -87 -380 -130 -267 -375
-440 -732 -518 -88 -19 -134 -22 -308 -22 -231 -1 -344 16 -533 78 -199 66
-381 168 -510 288 l-58 53 234 240 235 240 22 -29 c72 -90 281 -217 426 -258
167 -47 383 -23 486 55 95 73 135 225 88 335 -49 114 -162 179 -505 292 -121
40 -264 92 -317 116 -254 111 -409 269 -484 489 -36 107 -45 313 -19 450 82
442 514 729 1104 734 68 1 171 -6 229 -15z m-4098 -354 l0 -300 -415 0 -415 0
0 -1175 0 -1175 -360 0 -360 0 0 1175 0 1175 -415 0 -415 0 0 300 0 300 1190
0 1190 0 0 -300z m2310 0 l0 -300 -650 0 -650 0 0 -280 0 -280 610 0 610 0 0
-285 0 -285 -610 0 -610 0 0 -310 0 -310 685 0 685 0 0 -300 0 -300 -1030 0
-1030 0 0 1475 0 1475 995 0 995 0 0 -300z m5030 0 l0 -300 -415 0 -415 0 0
-1175 0 -1175 -360 0 -360 0 0 1175 0 1175 -415 0 -415 0 0 300 0 300 1190 0
1190 0 0 -300z"/>
</g>
</svg>
